<svg width="130" height="53" viewBox="0 0 130 53" fill="none" xmlns="http://www.w3.org/2000/svg">
<path fill-rule="evenodd" clip-rule="evenodd" d="M79.3865 31.1386V7.1644H97.3339L102.367 11.9987V19.1022L97.3339 24.1338H90.6867V31.0399L79.3865 31.1386ZM41.9723 7.1644H53.5574L58.4953 11.7027L63.1483 7.1644H74.6385V31.0399H67.2316L62.8634 26.5016L58.4003 31.0399H58.2104L53.7473 26.5016L49.2842 31.0399H41.8773L41.9723 7.1644Z" fill="#1864AB"/>
<path fill-rule="evenodd" clip-rule="evenodd" d="M118.509 26.6003L122.878 31.1386H130V23.6405L125.536 19.1022L130 14.3665V7.1644H122.878L118.509 11.8014L114.141 7.1644H107.019V14.3665L111.292 19.1022L107.019 23.6405V31.1386H114.141L118.509 26.6003Z" fill="#35B13F"/>
<path fill-rule="evenodd" clip-rule="evenodd" d="M118.51 11.7998L125.537 19.1006L118.51 26.5987L111.293 19.1006L118.51 11.7998Z" fill="#FCC419"/>
<path fill-rule="evenodd" clip-rule="evenodd" d="M118.415 15.0559C120.504 15.0559 122.213 16.8318 122.213 19.0023C122.213 21.1728 120.504 22.9487 118.415 22.9487C116.326 22.9487 114.617 21.1728 114.617 19.0023C114.617 16.8318 116.231 15.0559 118.415 15.0559Z" fill="#1864AB"/>
<path fill-rule="evenodd" clip-rule="evenodd" d="M18.992 0.0593262L33.6158 7.06413L37.889 30.9397L18.897 52.9407L0 30.9397L4.17823 7.06413L18.992 0.0593262Z" fill="#1864AB"/>
<path d="M18.9911 5.28861L23.1693 7.75509L27.2526 10.2216L28.4871 18.9036L24.024 22.85V28.1776L19.3709 26.1057V24.1325L22.4097 21.7647L18.9911 22.6526L15.5725 21.7647L18.7062 24.1325V26.1057L13.9582 28.1776V22.85L9.49512 18.9036L10.7296 10.3202L14.9078 7.85375L18.9911 5.28861Z" fill="white"/>
<path d="M24.0232 29.1651L18.9908 32.4208L13.9584 29.1651L18.9908 26.8959L24.0232 29.1651Z" fill="white"/>
<path d="M16.7129 12.9857L12.1553 12.5911C12.6428 13.0615 13.322 13.3859 14.0522 13.7348C15.3129 14.337 16.7258 15.0118 17.5675 16.6361L16.7129 12.9857Z" fill="#1864AB"/>
<path d="M21.2712 12.9857L25.8289 12.5911C25.3456 13.0574 24.674 13.3803 23.9556 13.7256C22.6981 14.3302 21.2972 15.0036 20.5116 16.6361L21.2712 12.9857Z" fill="#1864AB"/>
<path fill-rule="evenodd" clip-rule="evenodd" d="M41.9723 33.1102H48.2396C50.1388 33.1102 51.0884 33.8008 51.0884 34.9847V35.774C51.0884 36.3659 50.8036 36.9579 50.2338 37.2539C50.8036 37.4512 51.1834 37.9445 51.1834 38.5364V39.7203C51.1834 40.9043 50.2338 41.4962 48.3346 41.4962H41.9723V33.1102ZM48.2396 40.3123C49.1892 40.3123 49.5691 40.115 49.5691 39.7203V38.4378C49.5691 37.9049 48.7257 37.8458 48.3346 37.8458H43.4916V40.3123H48.2396ZM43.4916 34.2941V36.5632H48.3346C48.7103 36.5632 49.5691 36.5128 49.5691 35.9713V34.886C49.5691 34.4914 49.0943 34.2941 48.2396 34.2941H43.4916ZM58.8751 41.4962V33.1102H65.2374C67.1366 33.1102 68.0862 33.7021 68.0862 34.886V35.8726C68.0862 36.8592 67.4215 37.4512 66.0921 37.6485L67.9913 41.4962H66.377L64.4778 37.6485H60.3945V41.4962H58.8751ZM60.3945 34.3927V36.5632H65.2374C66.187 36.5632 66.5669 36.3659 66.5669 35.9713V34.9847C66.5669 34.5901 66.0921 34.3927 65.2374 34.3927H60.3945ZM87.2681 41.4962H85.6538L81.4756 34.6887L77.1074 41.4962H75.4931L80.9058 33.1102H82.0453L87.2681 41.4962ZM101.797 36.5632C103.696 36.5632 104.646 37.0565 104.646 38.2405V39.7203C104.646 40.9043 103.696 41.4962 101.797 41.4962H94.9599V40.3123H101.797C102.747 40.3123 103.126 40.115 103.126 39.7203V38.2405C103.126 37.8458 102.652 37.6485 101.797 37.6485H97.5238C95.6246 37.6485 94.675 37.0565 94.675 35.8726V34.9847C94.675 33.8008 95.6246 33.1102 97.5238 33.1102H104.171V34.2314H97.5238C96.6691 34.2314 96.1943 34.6887 96.1943 35.0834V35.9713C96.1943 36.3659 96.6691 36.5632 97.5238 36.5632H101.797ZM112.432 33.1102H113.952V41.4962H112.432V33.1102ZM121.928 33.1102H123.448V40.3123H130V41.4962H121.928V33.1102Z" fill="#1C7ED6"/>
</svg>
